HIERARCHY
ROOT hip
{
	OFFSET 0.000000 0.000000 0.000000 
	CHANNELS 6 Xposition Yposition Zposition Xrotation Zrotation Yrotation
	JOINT abdomen
	{
		OFFSET 0.000000 3.402643 0.000000 
		CHANNELS 3 Xrotation Zrotation Yrotation
		JOINT chest
		{
			OFFSET 0.000000 8.438565 -0.680529 
			CHANNELS 3 Xrotation Zrotation Yrotation
			JOINT neck
			{
				OFFSET 0.000000 10.207942 -0.272212 
				CHANNELS 3 Xrotation Zrotation Yrotation
				JOINT head
				{
					OFFSET 0.000000 3.130431 0.000000 
					CHANNELS 3 Xrotation Zrotation Yrotation
					End Site
					{
						OFFSET 0.000000 3.130435 0.000000 
					}
				}
			}
			JOINT lCollar
			{
				OFFSET 3.470700 6.669187 -0.816635 
				CHANNELS 3 Yrotation Zrotation Xrotation
				JOINT lShldr
				{
					OFFSET 3.198488 0.000000 0.000000 
					CHANNELS 3 Zrotation Yrotation Xrotation
					JOINT lForeArm
					{
						OFFSET 10.139888 0.000000 0.000000 
						CHANNELS 3 Yrotation Zrotation Xrotation
						JOINT lHand
						{
							OFFSET 8.370511 0.000000 0.000000 
							CHANNELS 3 Zrotation Yrotation Xrotation
							End Site
							{
								OFFSET 4.083176 0.000000 0.000000 
							}
						}
					}
				}
			}
			JOINT rCollar
			{
				OFFSET -3.470700 6.669187 -0.816635 
				CHANNELS 3 Yrotation Zrotation Xrotation
				JOINT rShldr
				{
					OFFSET -3.198488 0.000000 0.000000 
					CHANNELS 3 Zrotation Yrotation Xrotation
					JOINT rForeArm
					{
						OFFSET -10.139888 0.000000 0.000000 
						CHANNELS 3 Yrotation Zrotation Xrotation
						JOINT rHand
						{
							OFFSET -8.370511 0.000000 0.000000 
							CHANNELS 3 Zrotation Yrotation Xrotation
							End Site
							{
								OFFSET -4.083176 0.000000 0.000000 
							}
						}
					}
				}
			}
		}
	}
	JOINT lThigh
	{
		OFFSET 5.308129 -1.633274 1.361059 
		CHANNELS 3 Xrotation Zrotation Yrotation
		JOINT lShin
		{
			OFFSET -2.041588 -20.007561 0.000000 
			CHANNELS 3 Xrotation Zrotation Yrotation
			JOINT lFoot
			{
				OFFSET 0.000000 -19.190928 -1.224953 
				CHANNELS 3 Xrotation Yrotation Zrotation
				End Site
				{
					OFFSET 0.000000 -2.449906 4.627600 
				}
			}
		}
	}
	JOINT rThigh
	{
		OFFSET -5.308129 -1.633274 1.361059 
		CHANNELS 3 Xrotation Zrotation Yrotation
		JOINT rShin
		{
			OFFSET 2.041588 -20.007561 0.000000 
			CHANNELS 3 Xrotation Zrotation Yrotation
			JOINT rFoot
			{
				OFFSET 0.000000 -19.190928 -1.224953 
				CHANNELS 3 Xrotation Yrotation Zrotation
				End Site
				{
					OFFSET 0.000000 -2.449906 4.627600 
				}
			}
		}
	}
}
MOTION
Frames: 9
Frame Time: 0.016667
-138.055817 52.037167 -35.133961 12.064900 -2.750470 -41.310600 -21.064199 -0.241078 0.469533 14.032200 3.289150 0.014721 40.968102 -10.731200 -0.908108 22.939699 -0.149267 2.007240 2.000000 -2.000000 0.000000 100.142998 -167.934998 -1.992910 29.844101 -0.333434 0.068095 0.079736 -0.096295 -169.557999 -2.000000 2.000000 0.000000 -84.597000 168.973007 -0.450495 -30.019899 0.333225 0.068402 -0.057105 0.029341 -147.459000 -23.172987 6.600103 -30.820644 39.962132 2.885691 2.690761 -48.795826 19.544430 18.463570 -20.058701 9.843477 -3.881604 21.414570 -1.866427 -2.078717 -12.560592 10.150931 2.895916 
-138.968002 52.014744 -35.659706 12.035300 -2.722120 -41.556999 -21.083900 -0.243380 0.407768 14.070900 3.357330 -0.010275 41.029499 -11.212800 -1.146720 22.939600 -0.287832 1.901110 2.000000 -2.000000 0.000000 100.182999 -167.934006 -2.110090 29.922199 -0.333341 0.068257 0.079559 -0.096018 -169.440994 -2.000000 2.000000 0.000000 -84.684998 169.052002 -0.499519 -30.068701 0.333166 0.068503 -0.057115 0.029395 -147.477997 -23.126305 6.628742 -30.935358 40.019966 2.893966 2.682975 -48.861881 19.513784 18.455307 -19.971008 9.884260 -3.958969 21.434052 -1.872489 -2.089085 -12.702758 10.329929 2.980263 
-139.872330 51.994118 -36.185333 11.986100 -2.693960 -41.802502 -21.093800 -0.243456 0.324174 14.109400 3.444920 -0.056899 41.053501 -11.703100 -1.337350 22.929800 -0.426401 1.804820 2.000000 -2.000000 0.000000 100.192001 -167.944000 -2.276130 29.961300 -0.333295 0.068338 0.079368 -0.095718 -169.313995 -2.000000 2.000000 0.000000 -84.802200 169.139008 -0.489974 -30.117500 0.333108 0.068604 -0.057161 0.029637 -147.565994 -23.128689 6.643652 -31.006681 40.107895 2.896537 2.682568 -48.869602 19.488443 18.445484 -19.946650 9.956960 -3.991205 21.532763 -1.872787 -2.106361 -12.920365 10.443444 3.063373 
-140.768784 51.975807 -36.711636 11.917400 -2.665970 -42.066601 -21.113400 -0.249197 0.253241 14.148000 3.522830 -0.092549 41.072102 -12.195600 -1.537750 22.900600 -0.565010 1.708770 2.000000 -2.000000 0.000000 100.192001 -167.983002 -2.383650 29.980801 -0.333271 0.068378 0.079310 -0.095626 -169.274994 -2.000000 2.000000 0.000000 -84.890099 169.237000 -0.539048 -30.136999 0.333084 0.068644 -0.057186 0.029771 -147.615005 -23.043795 6.706082 -31.028324 40.136997 2.907377 2.695685 -48.840908 19.473602 18.433279 -19.816166 10.027089 -3.940141 21.563040 -1.866698 -2.114579 -13.170712 10.522182 3.162974 
-141.660736 51.958668 -37.239403 11.829300 -2.657270 -42.334000 -21.123199 -0.253783 0.213198 14.186700 3.591030 -0.117247 41.099800 -12.659000 -1.733720 22.871599 -0.694425 1.625790 2.000000 -2.000000 0.000000 100.211998 -168.031006 -2.413060 29.990601 -0.333260 0.068398 0.079412 -0.095788 -169.343994 -2.000000 2.000000 0.000000 -84.958504 169.343994 -0.705333 -30.136999 0.333084 0.068644 -0.057171 0.029691 -147.585999 -22.888702 6.812889 -30.980560 40.115257 2.930499 2.684191 -48.826183 19.502010 18.418116 -19.748487 10.127502 -3.862962 21.736200 -1.900540 -2.106541 -13.531894 10.561167 3.244576 
-142.549347 51.941128 -37.769081 11.721700 -2.648750 -42.610199 -21.123199 -0.260641 0.194910 14.225400 3.649540 -0.131011 41.136700 -13.093600 -1.935280 22.842600 -0.833128 1.530020 2.000000 -2.000000 0.000000 100.250999 -168.089996 -2.383900 29.971001 -0.333283 0.068358 0.079544 -0.095995 -169.431000 -2.000000 2.000000 0.000000 -84.997704 169.451004 -0.959508 -30.136999 0.333084 0.068644 -0.057140 0.029530 -147.526993 -22.812714 6.871548 -30.894861 40.221317 2.950698 2.680014 -48.792583 19.485046 18.378931 -19.585400 10.246845 -3.685159 21.795675 -1.901504 -2.124860 -13.875032 10.615545 3.343532 
-143.432327 51.921413 -38.297855 11.594400 -2.630830 -42.873901 -21.123301 -0.264070 0.185766 14.273900 3.708130 -0.134298 41.196201 -13.519100 -2.153550 22.843000 -0.971774 1.433890 2.000000 -2.000000 0.000000 100.261002 -168.167999 -2.374310 29.922199 -0.333341 0.068257 0.079574 -0.096041 -169.451004 -2.000000 2.000000 0.000000 -85.046600 169.587006 -1.243050 -30.146799 0.333073 0.068664 -0.057126 0.029449 -147.498001 -22.620504 7.009379 -30.783457 40.113010 2.954805 2.673336 -48.720043 19.419294 18.299414 -19.418562 10.347230 -3.514729 21.863136 -1.910243 -2.115167 -14.255864 10.716467 3.461385 
-144.302948 51.897957 -38.821350 11.467100 -2.603300 -43.077099 -21.123301 -0.273284 0.105577 14.331900 3.805620 -0.180130 41.263699 -13.989200 -2.320860 22.853300 -1.101130 1.370030 2.000000 -2.000000 0.000000 100.202003 -168.294998 -2.540620 29.834299 -0.333445 0.068075 0.079353 -0.095695 -169.304001 -2.000000 2.000000 0.000000 -85.173599 169.761993 -1.380210 -30.176100 0.333038 0.068725 -0.057151 0.029583 -147.546997 -22.473387 7.098729 -30.692986 40.150917 2.968905 2.667981 -48.734581 19.333708 18.157511 -19.216492 10.400354 -3.400110 21.872753 -1.907705 -2.104729 -14.588176 10.907572 3.623265 
-145.154465 51.871784 -39.336758 11.339600 -2.566170 -43.229599 -21.132999 -0.274550 -0.009041 14.389900 3.903140 -0.235528 41.330200 -14.494100 -2.471520 22.863701 -1.230480 1.306130 2.000000 -2.000000 0.000000 100.066002 -168.440002 -2.833940 29.687799 -0.333619 0.067772 0.078945 -0.095048 -169.031006 -2.000000 2.000000 0.000000 -85.359299 169.987000 -1.478440 -30.234699 0.332967 0.068846 -0.057166 0.029664 -147.576004 -22.386286 7.134542 -30.641481 40.130524 2.982252 2.672966 -48.647522 19.250475 18.057564 -19.046041 10.426569 -3.395147 21.930206 -1.923803 -2.106328 -14.923299 11.179097 3.765958 
